<svg viewBox="-927.5 -451.5 1855 903" width="1855" height="903" style="background-color: rgb(255, 255, 255);" xmlns="http://www.w3.org/2000/svg"><path d="M-260.9130271081674,24.347903941289502L-290.60393251519173,20.992804577966037M-290.60393251519173,-128.91668720815446L-290.60393251519173,20.992804577966037M-290.60393251519173,20.992804577966037L-342.49504858506185,69.90056701666839M-260.9130271081674,-125.56158784483098L-260.9130271081674,24.347903941289502M-260.9130271081674,24.347903941289502L-312.80414317803746,73.25566637999187" style="fill:none;stroke:rgb(0,0,0);stroke-width:1;stroke-linecap:round"></path><path d="M-260.9130271081674,24.347903941289502L-290.60393251519173,20.992804577966037L-290.60393251519173,-128.91668720815446zM-260.9130271081674,-125.56158784483098L-260.9130271081674,24.347903941289502L-290.60393251519173,-128.91668720815446z" style="fill:rgb(238,238,238); fill-opacity: 0.4"></path><path d="M-118.38610852270455,30.939777007075072L-212.05048782530457,20.355616805281635M-212.05048782530457,-99.57197662361472L-212.05048782530457,20.355616805281635M-212.05048782530457,20.355616805281635L-253.56338068120064,59.481826756243535" style="fill:none;stroke:rgb(0,0,0);stroke-width:1;stroke-linecap:round"></path><path d="M-342.49504858506185,69.90056701666839L-290.60393251519173,20.992804577966037L-260.9130271081674,24.347903941289502z" style="fill:rgb(238,238,238); fill-opacity: 0.4"></path><path d="M-260.9130271081674,-125.56158784483098L-290.60393251519173,-128.91668720815446M-290.60393251519173,-128.91668720815446L-342.49504858506185,-80.00892476945208M-260.9130271081674,-125.56158784483098L-312.80414317803746,-76.65382540612862M-122.32967258704991,-1.2110348291681237L-215.99405188964994,-11.79519503096156M-215.99405188964994,-28.015721015041784L-215.99405188964994,-11.79519503096156M-215.99405188964994,-11.79519503096156L-221.60878106073622,-6.503271070656036" style="fill:none;stroke:rgb(0,0,0);stroke-width:1;stroke-linecap:round"></path><path d="M-118.38610852270455,30.939777007075072L-212.05048782530457,20.355616805281635L-212.05048782530457,-99.57197662361473zM-312.80414317803746,73.25566637999187L-260.9130271081674,24.347903941289502L-260.9130271081674,-125.56158784483098z" style="fill:rgb(238,238,238); fill-opacity: 0.4"></path><path d="M-122.32967258704991,-17.43156081324835L-215.99405188964994,-28.015721015041784M-215.99405188964994,-28.015721015041784L-221.60878106073622,-22.723797054736263M-118.38610852270455,-88.98781642182128L-118.38610852270455,30.939777007075072M-118.38610852270455,30.939777007075072L-159.89900137860062,70.06598695803697" style="fill:none;stroke:rgb(0,0,0);stroke-width:1;stroke-linecap:round"></path><path d="M-215.99405188964994,-28.01572101504178L-215.99405188964994,-11.79519503096156L-221.6087810607362,-22.72379705473626z" style="fill:rgb(153,221,255); fill-opacity: 0.4"></path><path d="M-290.60393251519173,-128.91668720815446L-290.60393251519173,20.992804577966037L-342.49504858506185,-80.0089247694521z" style="fill:rgb(238,238,238); fill-opacity: 0.4"></path><path d="M-215.99405188964994,-11.79519503096156L-221.6087810607362,-6.503271070656039L-221.6087810607362,-22.72379705473626zM-122.32967258704991,-1.2110348291681245L-215.99405188964994,-11.79519503096156L-215.99405188964994,-28.01572101504178z" style="fill:rgb(153,221,255); fill-opacity: 0.4"></path><path d="M-221.60878106073622,-22.723797054736263L-221.60878106073622,-6.503271070656036M-221.60878106073622,-6.503271070656036L-127.94440175813621,4.080889131137399" style="fill:none;stroke:rgb(0,0,0);stroke-width:1;stroke-linecap:round"></path><path d="M-221.6087810607362,-6.503271070656039L-215.99405188964994,-11.79519503096156L-122.32967258704991,-1.2110348291681245z" style="fill:rgb(153,221,255); fill-opacity: 0.4"></path><path d="M-285.91569638947203,-9.620394844685553L-315.6066017964964,-12.975494208009016M-315.6066017964964,-29.196020192089243L-315.6066017964964,-12.975494208009016M-315.6066017964964,-12.975494208009016L-321.2213309675827,-7.683570247703495M-118.38610852270455,-88.98781642182128L-212.05048782530457,-99.57197662361472M-212.05048782530457,-99.57197662361472L-253.56338068120064,-60.44576667265282M-221.60878106073622,-22.723797054736263L-127.94440175813621,-12.139636852942827" style="fill:none;stroke:rgb(0,0,0);stroke-width:1;stroke-linecap:round"></path><path d="M-285.91569638947203,-9.620394844685551L-315.6066017964964,-12.975494208009012L-315.6066017964964,-29.19602019208924z" style="fill:rgb(153,221,255); fill-opacity: 0.4"></path><path d="M-285.91569638947203,-25.840920828765775L-315.6066017964964,-29.196020192089243M-315.6066017964964,-29.196020192089243L-321.2213309675827,-23.90409623178372" style="fill:none;stroke:rgb(0,0,0);stroke-width:1;stroke-linecap:round"></path><path d="M-122.32967258704991,-17.431560813248346L-122.32967258704991,-1.2110348291681245L-215.99405188964994,-28.01572101504178z" style="fill:rgb(153,221,255); fill-opacity: 0.4"></path><path d="M-253.56338068120058,59.48182675624352L-212.05048782530457,20.355616805281635L-118.38610852270455,30.939777007075072zM-118.38610852270455,-88.9878164218213L-118.38610852270455,30.939777007075072L-212.05048782530457,-99.57197662361473z" style="fill:rgb(238,238,238); fill-opacity: 0.4"></path><path d="M-221.6087810607362,-22.72379705473626L-127.94440175813621,-12.139636852942827L-215.99405188964994,-28.01572101504178zM-321.22133096758273,-7.683570247703493L-315.6066017964964,-12.975494208009012L-285.91569638947203,-9.620394844685551zM-315.6066017964964,-29.19602019208924L-315.6066017964964,-12.975494208009012L-321.22133096758273,-23.904096231783722z" style="fill:rgb(153,221,255); fill-opacity: 0.4"></path><path d="M-285.91570434485055,-25.840921770364044L-285.91570434485055,-9.620396108556715M-285.91570434485055,-9.620396108556715L-291.5304334043822,-4.328472253392276M-285.91570434485055,-9.620396108556715L-234.29852119002967,-11.190463517953166M-285.91569638947203,-25.840920828765775L-285.91569638947203,-9.620394844685553M-285.91569638947203,-9.620394844685553L-291.5304255605583,-4.328470884380029" style="fill:none;stroke:rgb(0,0,0);stroke-width:1;stroke-linecap:round"></path><path d="M-285.91569638947203,-25.84092082876578L-285.91569638947203,-9.620394844685551L-315.6066017964964,-29.19602019208924zM-221.6087810607362,-22.72379705473626L-221.6087810607362,-6.503271070656039L-127.94440175813621,-12.139636852942827zM-315.6066017964964,-12.975494208009012L-321.22133096758273,-7.683570247703493L-321.22133096758273,-23.904096231783722zM-127.94440175813621,4.080889131137395L-221.6087810607362,-6.503271070656039L-122.32967258704991,-1.2110348291681245z" style="fill:rgb(153,221,255); fill-opacity: 0.4"></path><path d="M-122.32967862465098,-17.43156160291477L-122.32967862465098,-1.211036263380333M-122.32967862465098,-1.211036263380333L-127.94440779573725,4.080887696925188M-122.32967862465098,-1.211036263380333L-74.58676543059028,-1.263844179942068M-122.32967258704991,-17.43156081324835L-122.32967258704991,-1.2110348291681237M-122.32967258704991,-1.2110348291681237L-127.94440175813621,4.080889131137399" style="fill:none;stroke:rgb(0,0,0);stroke-width:1;stroke-linecap:round"></path><path d="M-312.80414317803746,73.25566637999187L-342.49504858506185,69.90056701666839L-260.9130271081674,24.347903941289502z" style="fill:rgb(238,238,238); fill-opacity: 0.4"></path><path d="M-127.94440175813621,-12.139636852942827L-122.32967258704991,-17.431560813248346L-215.99405188964994,-28.01572101504178z" style="fill:rgb(153,221,255); fill-opacity: 0.4"></path><path d="M-285.91570434485055,-25.840921770364044L-291.5304334043822,-20.548997915199607M-285.91570434485055,-25.840921770364044L-234.29852119002967,-11.190463517953166M-285.91569638947203,-25.840920828765775L-291.5304255605583,-20.548996868460257M-321.2213309675827,-23.90409623178372L-321.2213309675827,-7.683570247703495M-321.2213309675827,-7.683570247703495L-291.5304255605583,-4.328470884380029" style="fill:none;stroke:rgb(0,0,0);stroke-width:1;stroke-linecap:round"></path><path d="M-285.9156966574883,-25.840920859051863L-285.9156966574883,-9.620394874971636L-291.53042582857466,-4.328470914666115z" style="fill:rgb(255,187,187); fill-opacity: 0.4"></path><path d="M-291.53042556055834,-4.32847088438003L-285.91569638947203,-9.620394844685551L-285.91569638947203,-25.84092082876578zM-291.53042556055834,-4.32847088438003L-321.22133096758273,-7.683570247703493L-285.91569638947203,-9.620394844685551zM-291.53042556055834,-20.54899686846026L-285.91569638947203,-25.84092082876578L-315.6066017964964,-29.19602019208924z" style="fill:rgb(153,221,255); fill-opacity: 0.4"></path><path d="M-312.80414317803746,-76.65382540612862L-260.9130271081674,-125.56158784483098L-290.60393251519173,-128.91668720815446z" style="fill:rgb(238,238,238); fill-opacity: 0.4"></path><path d="M-122.32967862465098,-17.43156160291477L-127.94440779573725,-12.139637642609246M-122.32967862465098,-17.43156160291477L-74.58676543059028,-1.263844179942068M-122.32967258704991,-17.43156081324835L-127.94440175813621,-12.139636852942827" style="fill:none;stroke:rgb(0,0,0);stroke-width:1;stroke-linecap:round"></path><path d="M-321.22133096758273,-23.904096231783722L-291.53042556055834,-20.54899686846026L-315.6066017964964,-29.19602019208924zM-221.6087810607362,-6.503271070656039L-127.94440175813621,4.080889131137395L-127.94440175813621,-12.139636852942827z" style="fill:rgb(153,221,255); fill-opacity: 0.4"></path><path d="M-122.32967400442885,-17.43156097341346L-122.32967400442885,-1.2110349893332366L-127.94440317551515,4.080888970972283z" style="fill:rgb(255,187,187); fill-opacity: 0.4"></path><path d="M-127.94440175813621,4.080889131137395L-122.32967258704991,-1.2110348291681245L-122.32967258704991,-17.431560813248346z" style="fill:rgb(153,221,255); fill-opacity: 0.4"></path><path d="M-285.9156966574883,-9.620394874971636L-285.9156966574883,-25.840920859051863L-234.2985135014038,-11.190462872843165z" style="fill:rgb(255,187,187); fill-opacity: 0.4"></path><path d="M-321.2213309675827,-23.90409623178372L-291.5304255605583,-20.548996868460257" style="fill:none;stroke:rgb(0,0,0);stroke-width:1;stroke-linecap:round"></path><path d="M-321.22133096758273,-23.904096231783722L-321.22133096758273,-7.683570247703493L-291.53042556055834,-20.54899686846026z" style="fill:rgb(153,221,255); fill-opacity: 0.4"></path><path d="M-290.60393251519173,20.992804577966037L-342.49504858506185,69.90056701666839L-342.49504858506185,-80.0089247694521z" style="fill:rgb(238,238,238); fill-opacity: 0.4"></path><path d="M-285.9156966574883,-25.840920859051863L-291.53042582857466,-4.328470914666115L-291.53042582857466,-20.548996898746346z" style="fill:rgb(255,187,187); fill-opacity: 0.4"></path><path d="M-291.53042556055834,-20.54899686846026L-291.53042556055834,-4.32847088438003L-285.91569638947203,-25.84092082876578zM-321.22133096758273,-7.683570247703493L-291.53042556055834,-4.32847088438003L-291.53042556055834,-20.54899686846026z" style="fill:rgb(153,221,255); fill-opacity: 0.4"></path><path d="M-212.05048782530457,-99.57197662361473L-212.05048782530457,20.355616805281635L-253.56338068120058,-60.44576667265284z" style="fill:rgb(238,238,238); fill-opacity: 0.4"></path><path d="M-291.53042582857466,-4.328470914666115L-285.9156966574883,-9.620394874971636L-234.2985135014038,-11.190462872843165z" style="fill:rgb(255,187,187); fill-opacity: 0.4"></path><path d="M-291.5304334043822,-4.328472253392276L-291.5304334043822,-20.548997915199607M-291.5304334043822,-4.328472253392276L-234.29852119002967,-11.190463517953166M-291.5304255605583,-20.548996868460257L-291.5304255605583,-4.328470884380029M24.140808913395617,37.53164994298164L-69.5235703892044,26.9474897411882M-69.5235703892044,-62.99820533048409L-69.5235703892044,26.9474897411882M-69.5235703892044,26.9474897411882L-100.65824003112643,56.292147204409616" style="fill:none;stroke:rgb(0,0,0);stroke-width:1;stroke-linecap:round"></path><path d="M-122.32967400442885,-17.43156097341346L-127.94440317551515,4.080888970972283L-127.94440317551515,-12.13963701310794z" style="fill:rgb(255,187,187); fill-opacity: 0.4"></path><path d="M-127.94440175813621,-12.139636852942827L-127.94440175813621,4.080889131137395L-122.32967258704991,-17.431560813248346z" style="fill:rgb(153,221,255); fill-opacity: 0.4"></path><path d="M-122.32967400442885,-1.2110349893332366L-122.32967400442885,-17.43156097341346L-74.58676545924179,-1.2638447347446036z" style="fill:rgb(255,187,187); fill-opacity: 0.4"></path><path d="M-127.94440779573725,4.080887696925188L-127.94440779573725,-12.139637642609246M-127.94440779573725,4.080887696925188L-74.58676543059028,-1.263844179942068M-127.94440175813621,-12.139636852942827L-127.94440175813621,4.080889131137399" style="fill:none;stroke:rgb(0,0,0);stroke-width:1;stroke-linecap:round"></path><path d="M-285.9156966574883,-25.840920859051863L-291.53042582857466,-20.548996898746346L-234.2985135014038,-11.190462872843165zM-127.94440317551515,4.080888970972283L-122.32967400442885,-1.2110349893332366L-74.58676545924179,-1.2638447347446036z" style="fill:rgb(255,187,187); fill-opacity: 0.4"></path><path d="M-291.5304334043822,-20.548997915199607L-234.29852119002967,-11.190463517953166M-118.38610852270455,-88.98781642182128L-159.89900137860062,-49.8616064708594" style="fill:none;stroke:rgb(0,0,0);stroke-width:1;stroke-linecap:round"></path><path d="M-291.53042582857466,-20.548996898746346L-291.53042582857466,-4.328470914666115L-234.2985135014038,-11.190462872843165z" style="fill:rgb(255,187,187); fill-opacity: 0.4"></path><path d="M-127.94440779573725,-12.139637642609246L-74.58676543059028,-1.263844179942068" style="fill:none;stroke:rgb(0,0,0);stroke-width:1;stroke-linecap:round"></path><path d="M-122.32967400442885,-17.43156097341346L-127.94440317551515,-12.13963701310794L-74.58676545924179,-1.2638447347446036zM-127.94440317551515,-12.13963701310794L-127.94440317551515,4.080888970972283L-74.58676545924179,-1.2638447347446036z" style="fill:rgb(255,187,187); fill-opacity: 0.4"></path><path d="M-159.89900137860062,70.06598695803696L-118.38610852270455,30.939777007075072L-118.38610852270455,-88.9878164218213zM24.140808913395606,37.53164994298164L-69.5235703892044,26.9474897411882L-69.5235703892044,-62.99820533048409zM-212.05048782530457,20.355616805281635L-253.56338068120058,59.48182675624352L-253.56338068120058,-60.44576667265284zM-312.80414317803746,-76.65382540612862L-312.80414317803746,73.25566637999187L-260.9130271081674,-125.56158784483098z" style="fill:rgb(238,238,238); fill-opacity: 0.4"></path><path d="M-342.49504858506185,-80.00892476945208L-342.49504858506185,69.90056701666839M-342.49504858506185,69.90056701666839L-312.80414317803746,73.25566637999187" style="fill:none;stroke:rgb(0,0,0);stroke-width:1;stroke-linecap:round"></path><path d="M-159.89900137860062,70.06598695803696L-253.56338068120058,59.48182675624352L-118.38610852270455,30.939777007075072z" style="fill:rgb(238,238,238); fill-opacity: 0.4"></path><path d="M24.140808913395617,-52.414045128690645L24.140808913395617,37.53164994298164M24.140808913395617,37.53164994298164L-6.993860728526433,66.87630740620304M24.140808913395617,-52.414045128690645L-69.5235703892044,-62.99820533048409M-69.5235703892044,-62.99820533048409L-100.65824003112643,-33.65354786726267M17.78287867214497,3.7133601851433364L-75.88150063045504,-6.870800016650098M-75.88150063045504,-23.091326000730326L-75.88150063045504,-6.870800016650098M-75.88150063045504,-6.870800016650098L-81.49622980154132,-1.5788760563445765" style="fill:none;stroke:rgb(0,0,0);stroke-width:1;stroke-linecap:round"></path><path d="M-159.89900137860062,-49.8616064708594L-118.38610852270455,-88.9878164218213L-212.05048782530457,-99.57197662361473zM-342.49504858506185,-80.0089247694521L-312.80414317803746,-76.65382540612862L-290.60393251519173,-128.91668720815446z" style="fill:rgb(238,238,238); fill-opacity: 0.4"></path><path d="M17.78287867214497,-12.50716579893689L-75.88150063045504,-23.091326000730326M-75.88150063045504,-23.091326000730326L-81.49622980154132,-17.799402040424802M-312.80414317803746,-76.65382540612862L-312.80414317803746,73.25566637999187" style="fill:none;stroke:rgb(0,0,0);stroke-width:1;stroke-linecap:round"></path><path d="M-100.65824003112643,56.292147204409616L-69.5235703892044,26.9474897411882L24.140808913395606,37.53164994298164z" style="fill:rgb(238,238,238); fill-opacity: 0.4"></path><path d="M-75.88150063045504,-23.091326000730326L-75.88150063045504,-6.870800016650099L-81.49622980154132,-17.799402040424802z" style="fill:rgb(153,221,255); fill-opacity: 0.4"></path><path d="M24.140808913395606,-52.414045128690645L24.140808913395606,37.53164994298164L-69.5235703892044,-62.99820533048409z" style="fill:rgb(238,238,238); fill-opacity: 0.4"></path><path d="M-75.88150063045504,-6.870800016650099L-81.49622980154132,-1.5788760563445772L-81.49622980154132,-17.799402040424802zM17.782878672144967,3.7133601851433373L-75.88150063045504,-6.870800016650099L-75.88150063045504,-23.091326000730326z" style="fill:rgb(153,221,255); fill-opacity: 0.4"></path><path d="M-253.56338068120064,-60.44576667265282L-253.56338068120064,59.481826756243535M-253.56338068120064,59.481826756243535L-159.89900137860062,70.06598695803697M-81.49622980154132,-17.799402040424802L-81.49622980154132,-1.5788760563445765M-81.49622980154132,-1.5788760563445765L12.168149501058686,9.005284145448858" style="fill:none;stroke:rgb(0,0,0);stroke-width:1;stroke-linecap:round"></path><path d="M-81.49622980154132,-1.5788760563445772L-75.88150063045504,-6.870800016650099L17.782878672144967,3.7133601851433373z" style="fill:rgb(153,221,255); fill-opacity: 0.4"></path><path d="M-69.5235703892044,-62.99820533048409L-69.5235703892044,26.9474897411882L-100.65824003112643,-33.65354786726267zM-342.49504858506185,69.90056701666839L-312.80414317803746,73.25566637999187L-312.80414317803746,-76.65382540612862z" style="fill:rgb(238,238,238); fill-opacity: 0.4"></path><path d="M-81.49622980154132,-17.799402040424802L12.168149501058686,-7.215241838631368" style="fill:none;stroke:rgb(0,0,0);stroke-width:1;stroke-linecap:round"></path><path d="M17.782878672144967,-12.50716579893689L17.782878672144967,3.7133601851433373L-75.88150063045504,-23.091326000730326zM-81.49622980154132,-17.799402040424802L12.168149501058682,-7.215241838631368L-75.88150063045504,-23.091326000730326z" style="fill:rgb(153,221,255); fill-opacity: 0.4"></path><path d="M-253.56338068120058,-60.44576667265284L-159.89900137860062,-49.8616064708594L-212.05048782530457,-99.57197662361473z" style="fill:rgb(238,238,238); fill-opacity: 0.4"></path><path d="M-81.49622980154132,-17.799402040424802L-81.49622980154132,-1.5788760563445772L12.168149501058682,-7.215241838631368z" style="fill:rgb(153,221,255); fill-opacity: 0.4"></path><path d="M24.140808913395617,-52.414045128690645L-6.993860728526433,-23.069387665469236" style="fill:none;stroke:rgb(0,0,0);stroke-width:1;stroke-linecap:round"></path><path d="M12.168149501058682,9.005284145448858L-81.49622980154132,-1.5788760563445772L17.782878672144967,3.7133601851433373z" style="fill:rgb(153,221,255); fill-opacity: 0.4"></path><path d="M17.782877731243417,-12.507166301569065L17.782877731243417,3.713360004784057M17.782877731243417,3.713360004784057L12.168148560157128,9.00528396508958M17.782877731243417,3.713360004784057L66.89314998649276,7.3509687278530516M17.78287867214497,-12.50716579893689L17.78287867214497,3.7133601851433364M17.78287867214497,3.7133601851433364L12.168149501058686,9.005284145448858" style="fill:none;stroke:rgb(0,0,0);stroke-width:1;stroke-linecap:round"></path><path d="M12.168149501058682,-7.215241838631368L17.782878672144967,-12.50716579893689L-75.88150063045504,-23.091326000730326z" style="fill:rgb(153,221,255); fill-opacity: 0.4"></path><path d="M-342.49504858506185,-80.0089247694521L-342.49504858506185,69.90056701666839L-312.80414317803746,-76.65382540612862zM-159.89900137860062,-49.8616064708594L-159.89900137860062,70.06598695803696L-118.38610852270455,-88.9878164218213zM-69.5235703892044,26.9474897411882L-100.65824003112643,56.292147204409616L-100.65824003112643,-33.65354786726267z" style="fill:rgb(238,238,238); fill-opacity: 0.4"></path><path d="M17.78287867214497,-12.50716579893689L12.168149501058686,-7.215241838631368M17.782877731243417,-12.507166301569065L12.168148560157128,-7.215242341263542M17.782877731243417,-12.507166301569065L66.89314998649276,7.3509687278530516M166.66772634949575,44.12352287888818L73.00334704689574,33.53936267709474M73.00334704689574,-26.42443403735344L73.00334704689574,33.53936267709474M73.00334704689574,33.53936267709474L52.246900618947706,53.10246765257569" style="fill:none;stroke:rgb(0,0,0);stroke-width:1;stroke-linecap:round"></path><path d="M-81.49622980154132,-1.5788760563445772L12.168149501058682,9.005284145448858L12.168149501058682,-7.215241838631368z" style="fill:rgb(153,221,255); fill-opacity: 0.4"></path><path d="M17.782877254766003,-12.507165959102004L17.782877254766003,3.7133600249782237L12.168148083679721,9.005283985283745z" style="fill:rgb(255,187,187); fill-opacity: 0.4"></path><path d="M12.168149501058682,9.005284145448858L17.782878672144967,3.7133601851433373L17.782878672144967,-12.50716579893689z" style="fill:rgb(153,221,255); fill-opacity: 0.4"></path><path d="M-6.993860728526433,66.87630740620304L24.140808913395606,37.53164994298164L24.140808913395606,-52.414045128690645z" style="fill:rgb(238,238,238); fill-opacity: 0.4"></path><path d="M17.782877254766003,3.7133600249782237L17.782877254766003,-12.507165959102004L66.89315191307887,7.3509689907760976zM17.782877254766003,-12.507165959102004L12.168148083679721,9.005283985283745L12.168148083679721,-7.215241998796482z" style="fill:rgb(255,187,187); fill-opacity: 0.4"></path><path d="M12.168149501058682,-7.215241838631368L12.168149501058682,9.005284145448858L17.782878672144967,-12.50716579893689z" style="fill:rgb(153,221,255); fill-opacity: 0.4"></path><path d="M-159.89900137860062,-49.8616064708594L-159.89900137860062,70.06598695803697M12.168148560157128,9.00528396508958L12.168148560157128,-7.215242341263542M12.168148560157128,9.00528396508958L66.89314998649276,7.3509687278530516M12.168149501058686,-7.215241838631368L12.168149501058686,9.005284145448858" style="fill:none;stroke:rgb(0,0,0);stroke-width:1;stroke-linecap:round"></path><path d="M-6.993860728526433,66.87630740620304L-100.65824003112643,56.292147204409616L24.140808913395606,37.53164994298164z" style="fill:rgb(238,238,238); fill-opacity: 0.4"></path><path d="M12.168148083679721,9.005283985283745L17.782877254766003,3.7133600249782237L66.89315191307887,7.3509689907760976z" style="fill:rgb(255,187,187); fill-opacity: 0.4"></path><path d="M-342.49504858506185,-80.00892476945208L-312.80414317803746,-76.65382540612862" style="fill:none;stroke:rgb(0,0,0);stroke-width:1;stroke-linecap:round"></path><path d="M-6.993860728526433,-23.069387665469236L24.140808913395606,-52.414045128690645L-69.5235703892044,-62.99820533048409zM-253.56338068120058,59.48182675624352L-159.89900137860062,70.06598695803696L-159.89900137860062,-49.8616064708594z" style="fill:rgb(238,238,238); fill-opacity: 0.4"></path><path d="M17.782877254766003,-12.507165959102004L12.168148083679721,-7.215241998796482L66.89315191307887,7.3509689907760976z" style="fill:rgb(255,187,187); fill-opacity: 0.4"></path><path d="M12.168148560157128,-7.215242341263542L66.89314998649276,7.3509687278530516" style="fill:none;stroke:rgb(0,0,0);stroke-width:1;stroke-linecap:round"></path><path d="M-253.56338068120058,-60.44576667265284L-253.56338068120058,59.48182675624352L-159.89900137860062,-49.8616064708594zM166.66772634949575,44.12352287888818L73.00334704689575,33.53936267709474L73.00334704689575,-26.42443403735344z" style="fill:rgb(238,238,238); fill-opacity: 0.4"></path><path d="M-100.65824003112643,-33.65354786726267L-100.65824003112643,56.292147204409616M-100.65824003112643,56.292147204409616L-6.993860728526433,66.87630740620304" style="fill:none;stroke:rgb(0,0,0);stroke-width:1;stroke-linecap:round"></path><path d="M12.168148083679721,-7.215241998796482L12.168148083679721,9.005283985283745L66.89315191307887,7.3509689907760976z" style="fill:rgb(255,187,187); fill-opacity: 0.4"></path><path d="M-253.56338068120064,-60.44576667265282L-159.89900137860062,-49.8616064708594M166.66772634949575,-15.840273835560001L73.00334704689574,-26.42443403735344M73.00334704689574,-26.42443403735344L52.246900618947706,-6.86132906187249" style="fill:none;stroke:rgb(0,0,0);stroke-width:1;stroke-linecap:round"></path><path d="M52.24690061894773,53.10246765257569L73.00334704689575,33.53936267709474L166.66772634949575,44.12352287888818zM-100.65824003112643,-33.65354786726267L-6.993860728526433,-23.069387665469236L-69.5235703892044,-62.99820533048409z" style="fill:rgb(238,238,238); fill-opacity: 0.4"></path><path d="M166.66772634949575,-15.840273835560001L166.66772634949575,44.12352287888818M166.66772634949575,44.12352287888818L145.91127992154773,63.68662785436912M155.81536793730677,51.257929619346015L62.15098863470676,40.67376941755258M62.15098863470676,24.45324343347235L62.15098863470676,40.67376941755258M62.15098863470676,40.67376941755258L56.53625946362048,45.965693377858095" style="fill:none;stroke:rgb(0,0,0);stroke-width:1;stroke-linecap:round"></path><path d="M73.00334704689575,-26.42443403735344L73.00334704689575,33.53936267709474L52.24690061894773,-6.86132906187249zM166.66772634949575,-15.840273835560001L166.66772634949575,44.12352287888818L73.00334704689575,-26.42443403735344z" style="fill:rgb(238,238,238); fill-opacity: 0.4"></path><path d="M155.81536793730677,35.03740363526578L62.15098863470676,24.45324343347235M62.15098863470676,24.45324343347235L56.53625946362048,29.745167393777866" style="fill:none;stroke:rgb(0,0,0);stroke-width:1;stroke-linecap:round"></path><path d="M62.1509886347068,24.453243433472345L62.1509886347068,40.67376941755257L56.5362594636205,29.745167393777866z" style="fill:rgb(153,221,255); fill-opacity: 0.4"></path><path d="M-6.993860728526433,-23.069387665469236L-6.993860728526433,66.87630740620304L24.140808913395606,-52.414045128690645z" style="fill:rgb(238,238,238); fill-opacity: 0.4"></path><path d="M62.1509886347068,40.67376941755257L56.5362594636205,45.96569337785809L56.5362594636205,29.745167393777866zM155.8153679373068,51.25792961934601L62.1509886347068,40.67376941755257L62.1509886347068,24.453243433472345z" style="fill:rgb(153,221,255); fill-opacity: 0.4"></path><path d="M73.00334704689575,33.53936267709474L52.24690061894773,53.10246765257569L52.24690061894773,-6.86132906187249z" style="fill:rgb(238,238,238); fill-opacity: 0.4"></path><path d="M56.53625946362048,29.745167393777866L56.53625946362048,45.965693377858095M56.53625946362048,45.965693377858095L150.2006387662205,56.54985357965153" style="fill:none;stroke:rgb(0,0,0);stroke-width:1;stroke-linecap:round"></path><path d="M56.5362594636205,45.96569337785809L62.1509886347068,40.67376941755257L155.8153679373068,51.25792961934601z" style="fill:rgb(153,221,255); fill-opacity: 0.4"></path><path d="M-6.993860728526433,-23.069387665469236L-6.993860728526433,66.87630740620304" style="fill:none;stroke:rgb(0,0,0);stroke-width:1;stroke-linecap:round"></path><path d="M-100.65824003112643,56.292147204409616L-6.993860728526433,66.87630740620304L-6.993860728526433,-23.069387665469236zM-100.65824003112643,-33.65354786726267L-100.65824003112643,56.292147204409616L-6.993860728526433,-23.069387665469236z" style="fill:rgb(238,238,238); fill-opacity: 0.4"></path><path d="M-100.65824003112643,-33.65354786726267L-6.993860728526433,-23.069387665469236M166.66772634949575,-15.840273835560001L145.91127992154773,3.7228311399209457M56.53625946362048,29.745167393777866L150.2006387662205,40.3293275955713" style="fill:none;stroke:rgb(0,0,0);stroke-width:1;stroke-linecap:round"></path><path d="M155.8153679373068,35.03740363526578L155.8153679373068,51.25792961934601L62.1509886347068,24.453243433472345z" style="fill:rgb(153,221,255); fill-opacity: 0.4"></path><path d="M145.91127992154773,63.68662785436912L166.66772634949575,44.12352287888818L166.66772634949575,-15.840273835560001z" style="fill:rgb(238,238,238); fill-opacity: 0.4"></path><path d="M52.246900618947706,-6.86132906187249L52.246900618947706,53.10246765257569M52.246900618947706,53.10246765257569L145.91127992154773,63.68662785436912" style="fill:none;stroke:rgb(0,0,0);stroke-width:1;stroke-linecap:round"></path><path d="M56.5362594636205,29.745167393777866L150.2006387662205,40.32932759557131L62.1509886347068,24.453243433472345z" style="fill:rgb(153,221,255); fill-opacity: 0.4"></path><path d="M145.91127992154773,63.68662785436912L52.24690061894773,53.10246765257569L166.66772634949575,44.12352287888818z" style="fill:rgb(238,238,238); fill-opacity: 0.4"></path><path d="M56.5362594636205,29.745167393777866L56.5362594636205,45.96569337785809L150.2006387662205,40.32932759557131z" style="fill:rgb(153,221,255); fill-opacity: 0.4"></path><path d="M145.91127992154773,3.722831139920946L166.66772634949575,-15.840273835560001L73.00334704689575,-26.42443403735344z" style="fill:rgb(238,238,238); fill-opacity: 0.4"></path><path d="M150.2006387662205,56.54985357965152L56.5362594636205,45.96569337785809L155.8153679373068,51.25792961934601z" style="fill:rgb(153,221,255); fill-opacity: 0.4"></path><path d="M155.81535702961338,35.03740253917472L155.81535702961338,51.25792916780074M155.81535702961338,51.25792916780074L150.2006276911951,56.549853285817875M155.81535702961338,51.25792916780074L208.70039493476966,40.96628728423602M155.81536793730677,35.03740363526578L155.81536793730677,51.257929619346015M155.81536793730677,51.257929619346015L150.2006387662205,56.54985357965153" style="fill:none;stroke:rgb(0,0,0);stroke-width:1;stroke-linecap:round"></path><path d="M150.2006387662205,40.32932759557131L155.8153679373068,35.03740363526578L62.1509886347068,24.453243433472345z" style="fill:rgb(153,221,255); fill-opacity: 0.4"></path><path d="M155.81535702961338,35.03740253917472L150.2006276911951,40.329326657191864M155.81535702961338,35.03740253917472L208.70039493476966,40.96628728423602M155.81536793730677,35.03740363526578L150.2006387662205,40.3293275955713M327.9275152388263,52.83222735712568L215.53026832333393,40.131236046963004M215.53026832333393,10.14933768973891L215.53026832333393,40.131236046963004M215.53026832333393,40.131236046963004L205.15204510935988,49.91278853470347" style="fill:none;stroke:rgb(0,0,0);stroke-width:1;stroke-linecap:round"></path><path d="M56.5362594636205,45.96569337785809L150.2006387662205,56.54985357965152L150.2006387662205,40.32932759557131z" style="fill:rgb(153,221,255); fill-opacity: 0.4"></path><path d="M155.81536651992784,35.037403475100675L155.81536651992784,51.25792945918089L150.20063734884152,56.54985341948642z" style="fill:rgb(255,187,187); fill-opacity: 0.4"></path><path d="M150.2006387662205,56.54985357965152L155.8153679373068,51.25792961934601L155.8153679373068,35.03740363526578z" style="fill:rgb(153,221,255); fill-opacity: 0.4"></path><path d="M52.24690061894773,-6.86132906187249L145.91127992154773,3.722831139920946L73.00334704689575,-26.42443403735344z" style="fill:rgb(238,238,238); fill-opacity: 0.4"></path><path d="M328.26300830783674,37.27086998430725L215.86576139234438,24.56987867414456M215.86576139234438,8.349352690064334L215.86576139234438,24.56987867414456M215.86576139234438,24.56987867414456L210.25103222125813,29.861802634450083" style="fill:none;stroke:rgb(0,0,0);stroke-width:1;stroke-linecap:round"></path><path d="M155.81536651992784,51.25792945918089L155.81536651992784,35.037403475100675L208.70040440150882,40.96628863745165zM155.81536651992784,35.037403475100675L150.20063734884152,56.54985341948642L150.20063734884152,40.32932743540619z" style="fill:rgb(255,187,187); fill-opacity: 0.4"></path><path d="M150.2006387662205,40.32932759557131L150.2006387662205,56.54985357965152L155.8153679373068,35.03740363526578z" style="fill:rgb(153,221,255); fill-opacity: 0.4"></path><path d="M150.20063734884152,56.54985341948642L155.81536651992784,51.25792945918089L208.70040440150882,40.96628863745165z" style="fill:rgb(255,187,187); fill-opacity: 0.4"></path><path d="M150.2006276911951,56.549853285817875L150.2006276911951,40.329326657191864M150.2006276911951,56.549853285817875L208.70039493476966,40.96628728423602M150.2006387662205,40.3293275955713L150.2006387662205,56.54985357965153M52.246900618947706,-6.86132906187249L145.91127992154773,3.7228311399209457M328.26300830783674,21.050344000227017L215.86576139234438,8.349352690064334M215.86576139234438,8.349352690064334L210.25103222125813,13.641276650369855M327.9275152388263,22.850328999901592L215.53026832333393,10.14933768973891M215.53026832333393,10.14933768973891L205.15204510935988,19.930890177479384" style="fill:none;stroke:rgb(0,0,0);stroke-width:1;stroke-linecap:round"></path><path d="M155.81536651992784,35.037403475100675L150.20063734884152,40.32932743540619L208.70040440150882,40.96628863745165z" style="fill:rgb(255,187,187); fill-opacity: 0.4"></path><path d="M52.24690061894773,-6.86132906187249L52.24690061894773,53.10246765257569L145.91127992154773,3.722831139920946z" style="fill:rgb(238,238,238); fill-opacity: 0.4"></path><path d="M215.86576139234438,8.349352690064334L215.86576139234438,24.56987867414456L210.25103222125813,13.641276650369857z" style="fill:rgb(153,221,255); fill-opacity: 0.4"></path><path d="M145.91127992154773,3.722831139920946L145.91127992154773,63.68662785436912L166.66772634949575,-15.840273835560001z" style="fill:rgb(238,238,238); fill-opacity: 0.4"></path><path d="M150.2006276911951,40.329326657191864L208.70039493476966,40.96628728423602" style="fill:none;stroke:rgb(0,0,0);stroke-width:1;stroke-linecap:round"></path><path d="M150.20063734884152,40.32932743540619L150.20063734884152,56.54985341948642L208.70040440150882,40.96628863745165z" style="fill:rgb(255,187,187); fill-opacity: 0.4"></path><path d="M327.92751523882623,52.832227357125674L215.53026832333393,40.131236046963004L215.53026832333393,10.149337689738903zM52.24690061894773,53.10246765257569L145.91127992154773,63.68662785436912L145.91127992154773,3.722831139920946zM215.53026832333393,10.149337689738903L215.53026832333393,40.131236046963004L205.15204510935988,19.930890177479377z" style="fill:rgb(238,238,238); fill-opacity: 0.4"></path><path d="M215.86576139234438,24.56987867414456L210.25103222125813,29.861802634450083L210.25103222125813,13.641276650369857zM328.2630083078367,37.27086998430725L215.86576139234438,24.56987867414456L215.86576139234438,8.349352690064334z" style="fill:rgb(153,221,255); fill-opacity: 0.4"></path><path d="M145.91127992154773,3.7228311399209457L145.91127992154773,63.68662785436912M210.25103222125813,13.641276650369855L210.25103222125813,29.861802634450083M210.25103222125813,29.861802634450083L322.6482791367505,42.562793944612764" style="fill:none;stroke:rgb(0,0,0);stroke-width:1;stroke-linecap:round"></path><path d="M205.15204510935988,49.912788534703466L215.53026832333393,40.131236046963004L327.92751523882623,52.832227357125674z" style="fill:rgb(238,238,238); fill-opacity: 0.4"></path><path d="M210.25103222125813,29.861802634450083L215.86576139234438,24.56987867414456L328.2630083078367,37.27086998430725z" style="fill:rgb(153,221,255); fill-opacity: 0.4"></path><path d="M215.53026832333393,40.131236046963004L205.15204510935988,49.912788534703466L205.15204510935988,19.930890177479377z" style="fill:rgb(238,238,238); fill-opacity: 0.4"></path><path d="M210.25103222125813,13.641276650369855L322.6482791367505,26.34226796053254M205.15204510935988,19.930890177479384L205.15204510935988,49.91278853470347M205.15204510935988,49.91278853470347L317.54929202485226,62.61377984486615" style="fill:none;stroke:rgb(0,0,0);stroke-width:1;stroke-linecap:round"></path><path d="M327.92751523882623,22.850328999901585L327.92751523882623,52.832227357125674L215.53026832333393,10.149337689738903z" style="fill:rgb(238,238,238); fill-opacity: 0.4"></path><path d="M210.25103222125813,13.641276650369857L322.64827913675043,26.34226796053254L215.86576139234438,8.349352690064334zM328.2630083078367,21.050344000227017L328.2630083078367,37.27086998430725L215.86576139234438,8.349352690064334zM210.25103222125813,13.641276650369857L210.25103222125813,29.861802634450083L322.64827913675043,26.34226796053254z" style="fill:rgb(153,221,255); fill-opacity: 0.4"></path><path d="M327.9275152388263,22.850328999901592L327.9275152388263,52.83222735712568M327.9275152388263,52.83222735712568L317.54929202485226,62.61377984486615M205.15204510935988,19.930890177479384L317.54929202485226,32.63188148764206" style="fill:none;stroke:rgb(0,0,0);stroke-width:1;stroke-linecap:round"></path><path d="M322.64827913675043,42.562793944612764L210.25103222125813,29.861802634450083L328.2630083078367,37.27086998430725zM322.64827913675043,26.34226796053254L328.2630083078367,21.050344000227017L215.86576139234438,8.349352690064334z" style="fill:rgb(153,221,255); fill-opacity: 0.4"></path><path d="M328.26299632880716,21.050342486535776L328.26299632880716,37.27086869217862M328.26299632880716,37.27086869217862L322.64826721349823,42.5627925999136M328.26299632880716,37.27086869217862L376.7900442851842,48.83993906438345M328.26300830783674,21.050344000227017L328.26300830783674,37.27086998430725M328.26300830783674,37.27086998430725L322.6482791367505,42.562793944612764" style="fill:none;stroke:rgb(0,0,0);stroke-width:1;stroke-linecap:round"></path><path d="M205.15204510935988,19.930890177479377L317.5492920248522,32.63188148764206L215.53026832333393,10.149337689738903zM317.5492920248522,62.61377984486615L205.15204510935988,49.912788534703466L327.92751523882623,52.832227357125674zM317.5492920248522,32.63188148764206L327.92751523882623,22.850328999901585L215.53026832333393,10.149337689738903z" style="fill:rgb(238,238,238); fill-opacity: 0.4"></path><path d="M210.25103222125813,29.861802634450083L322.64827913675043,42.562793944612764L322.64827913675043,26.34226796053254z" style="fill:rgb(153,221,255); fill-opacity: 0.4"></path><path d="M328.26299632880716,21.050342486535776L322.64826721349823,26.342266394270755M328.26299632880716,21.050342486535776L376.7900442851842,48.83993906438345M328.26300830783674,21.050344000227017L322.6482791367505,26.34226796053254M327.9275152388263,22.850328999901592L317.54929202485226,32.63188148764206" style="fill:none;stroke:rgb(0,0,0);stroke-width:1;stroke-linecap:round"></path><path d="M205.15204510935988,19.930890177479377L205.15204510935988,49.912788534703466L317.5492920248522,32.63188148764206z" style="fill:rgb(238,238,238); fill-opacity: 0.4"></path><path d="M322.64827913675043,42.562793944612764L328.2630083078367,37.27086998430725L328.2630083078367,21.050344000227017z" style="fill:rgb(153,221,255); fill-opacity: 0.4"></path><path d="M328.26301073079577,21.050344274023598L328.26301073079577,37.27087025810383L322.6482815597095,42.562794218409344z" style="fill:rgb(255,187,187); fill-opacity: 0.4"></path><path d="M317.5492920248522,62.61377984486615L327.92751523882623,52.832227357125674L327.92751523882623,22.850328999901585z" style="fill:rgb(238,238,238); fill-opacity: 0.4"></path><path d="M328.26301073079577,37.27087025810383L328.26301073079577,21.050344274023598L376.79005863004335,48.839940685365605z" style="fill:rgb(255,187,187); fill-opacity: 0.4"></path><path d="M322.64827913675043,26.34226796053254L322.64827913675043,42.562793944612764L328.2630083078367,21.050344000227017z" style="fill:rgb(153,221,255); fill-opacity: 0.4"></path><path d="M328.26301073079577,21.050344274023598L322.6482815597095,42.562794218409344L322.6482815597095,26.34226823432912z" style="fill:rgb(255,187,187); fill-opacity: 0.4"></path><path d="M205.15204510935988,49.912788534703466L317.5492920248522,62.61377984486615L317.5492920248522,32.63188148764206z" style="fill:rgb(238,238,238); fill-opacity: 0.4"></path><path d="M322.64826721349823,42.5627925999136L322.64826721349823,26.342266394270755M322.64826721349823,42.5627925999136L376.7900442851842,48.83993906438345M322.6482791367505,26.34226796053254L322.6482791367505,42.562793944612764" style="fill:none;stroke:rgb(0,0,0);stroke-width:1;stroke-linecap:round"></path><path d="M322.6482815597095,42.562794218409344L328.26301073079577,37.27087025810383L376.79005863004335,48.839940685365605zM328.26301073079577,21.050344274023598L322.6482815597095,26.34226823432912L376.79005863004335,48.839940685365605z" style="fill:rgb(255,187,187); fill-opacity: 0.4"></path><path d="M322.64826721349823,26.342266394270755L376.7900442851842,48.83993906438345" style="fill:none;stroke:rgb(0,0,0);stroke-width:1;stroke-linecap:round"></path><path d="M317.5492920248522,32.63188148764206L317.5492920248522,62.61377984486615L327.92751523882623,22.850328999901585z" style="fill:rgb(238,238,238); fill-opacity: 0.4"></path><path d="M322.6482815597095,26.34226823432912L322.6482815597095,42.562794218409344L376.79005863004335,48.839940685365605z" style="fill:rgb(255,187,187); fill-opacity: 0.4"></path><path d="M317.54929202485226,32.63188148764206L317.54929202485226,62.61377984486615M508.388078674083,64.56848122946377L377.2579538361638,49.75065764594505M377.2579538361638,47.04723664859834L377.2579538361638,49.75065764594505M377.2579538361638,49.75065764594505L376.3221656409827,50.63264497266263M508.388078674083,61.86506023211707L377.2579538361638,47.04723664859834M377.2579538361638,47.04723664859834L376.3221656409827,47.929223975315935" style="fill:none;stroke:rgb(0,0,0);stroke-width:1;stroke-linecap:round"></path><path d="M377.2579538361637,47.04723664859834L377.2579538361637,49.75065764594505L376.3221656409827,47.929223975315935zM377.2579538361637,49.75065764594505L376.3221656409827,50.63264497266263L376.3221656409827,47.929223975315935z" style="fill:rgb(238,238,238); fill-opacity: 0.4"></path><path d="M376.3221656409827,47.929223975315935L376.3221656409827,50.63264497266263M376.3221656409827,50.63264497266263L507.45229047890194,65.45046855618136M376.3221656409827,47.929223975315935L507.45229047890194,62.747047558834666" style="fill:none;stroke:rgb(0,0,0);stroke-width:1;stroke-linecap:round"></path><path d="M508.3880786740831,64.56848122946377L377.2579538361637,49.75065764594505L377.2579538361637,47.04723664859834zM376.3221656409827,50.63264497266263L377.2579538361637,49.75065764594505L508.3880786740831,64.56848122946377zM376.3221656409827,47.929223975315935L507.45229047890194,62.747047558834666L377.2579538361637,47.04723664859834zM376.3221656409827,47.929223975315935L376.3221656409827,50.63264497266263L507.45229047890194,62.747047558834666z" style="fill:rgb(238,238,238); fill-opacity: 0.4"></path><path d="M612.1198506129984,154.27936143126908L582.1472500609292,150.89243025989413M582.1472500609292,-17.755750577674583L582.1472500609292,150.89243025989413M582.1472500609292,150.89243025989413L571.7690268469553,160.67398274763457" style="fill:none;stroke:rgb(0,0,0);stroke-width:1;stroke-linecap:round"></path><path d="M508.3880786740831,61.86506023211707L508.3880786740831,64.56848122946377L377.2579538361637,47.04723664859834zM507.45229047890194,65.45046855618138L376.3221656409827,50.63264497266263L508.3880786740831,64.56848122946377zM507.45229047890194,62.747047558834666L508.3880786740831,61.86506023211707L377.2579538361637,47.04723664859834zM376.3221656409827,50.63264497266263L507.45229047890194,65.45046855618138L507.45229047890194,62.747047558834666z" style="fill:rgb(238,238,238); fill-opacity: 0.4"></path><path d="M612.1198506129984,-14.368819406299616L612.1198506129984,154.27936143126908M612.1198506129984,154.27936143126908L601.7416273990245,164.06091391900955" style="fill:none;stroke:rgb(0,0,0);stroke-width:1;stroke-linecap:round"></path><path d="M571.7690268469553,160.67398274763457L582.1472500609292,150.89243025989413L612.1198506129984,154.27936143126908z" style="fill:rgb(238,238,238); fill-opacity: 0.4"></path><path d="M508.388078674083,61.86506023211707L508.388078674083,64.56848122946377M508.388078674083,64.56848122946377L507.45229047890194,65.45046855618136M508.388078674083,61.86506023211707L507.45229047890194,62.747047558834666" style="fill:none;stroke:rgb(0,0,0);stroke-width:1;stroke-linecap:round"></path><path d="M507.45229047890194,65.45046855618138L508.3880786740831,64.56848122946377L508.3880786740831,61.86506023211707zM507.45229047890194,62.747047558834666L507.45229047890194,65.45046855618138L508.3880786740831,61.86506023211707z" style="fill:rgb(238,238,238); fill-opacity: 0.4"></path><path d="M507.45229047890194,62.747047558834666L507.45229047890194,65.45046855618136" style="fill:none;stroke:rgb(0,0,0);stroke-width:1;stroke-linecap:round"></path><path d="M612.1198506129984,154.27936143126908L582.1472500609292,150.89243025989413L582.1472500609292,-17.75575057767458zM601.7416273990245,164.06091391900955L571.7690268469553,160.67398274763457L612.1198506129984,154.27936143126908z" style="fill:rgb(238,238,238); fill-opacity: 0.4"></path><path d="M525.6090685486394,65.65662439990747L556.2383383412782,69.11775979377906M696.144103657953,163.77417858252247L666.1715031058837,160.38724741114748M666.1715031058837,-8.260933426421202L666.1715031058837,160.38724741114748M666.1715031058837,160.38724741114748L655.7932798919098,170.16879989888795M571.7690268469553,-7.974198089934116L571.7690268469553,160.67398274763457M571.7690268469553,160.67398274763457L601.7416273990245,164.06091391900955M696.144103657953,-4.874002255046235L696.144103657953,163.77417858252247M696.144103657953,163.77417858252247L685.7658804439791,173.55573107026294M601.7416273990245,-4.587266918559148L601.7416273990245,164.06091391900955" style="fill:none;stroke:rgb(0,0,0);stroke-width:1;stroke-linecap:round"></path><path d="M582.1472500609292,150.89243025989413L571.7690268469553,160.67398274763457L571.7690268469553,-7.974198089934113zM601.7416273990245,164.06091391900955L612.1198506129984,154.27936143126908L612.1198506129984,-14.368819406299625z" style="fill:rgb(238,238,238); fill-opacity: 0.4"></path><path d="M554.013369633545,73.30331696528302L556.2383383412783,75.87631228714582L574.2555558663599,71.1537217901741zM557.6134445728424,62.353928073726024L554.8632321097142,64.9460237538713L574.2555558663599,71.1537217901741z" style="fill:rgb(0,0,0)"></path><path d="M655.7932798919098,170.16879989888795L666.1715031058837,160.38724741114748L696.144103657953,163.77417858252247z" style="fill:rgb(238,238,238); fill-opacity: 0.4"></path><path d="M554.8632321097142,64.9460237538713L554.013369633545,73.30331696528302L574.2555558663599,71.1537217901741z" style="fill:rgb(0,0,0)"></path><path d="M612.1198506129984,-14.368819406299625L612.1198506129984,154.27936143126908L582.1472500609292,-17.75575057767458zM582.1472500609292,-17.75575057767458L582.1472500609292,150.89243025989413L571.7690268469553,-7.974198089934113zM696.144103657953,163.77417858252247L666.1715031058837,160.38724741114748L666.1715031058837,-8.260933426421198zM685.7658804439791,173.55573107026294L655.7932798919098,170.16879989888795L696.144103657953,163.77417858252247z" style="fill:rgb(238,238,238); fill-opacity: 0.4"></path><path d="M609.6333215935939,75.15144155116084L640.2625913862328,78.61257694503243" style="fill:none;stroke:rgb(0,0,0);stroke-width:1;stroke-linecap:round"></path><path d="M571.7690268469553,160.67398274763457L601.7416273990245,164.06091391900955L601.7416273990245,-4.587266918559157z" style="fill:rgb(238,238,238); fill-opacity: 0.4"></path><path d="M780.1683567029074,173.26899573377582L750.1957561508383,169.88206456240087M750.1957561508383,1.2338837248321668L750.1957561508383,169.88206456240087M750.1957561508383,169.88206456240087L739.8175329368643,179.66361705014134M655.7932798919098,1.5206190613192654L655.7932798919098,170.16879989888795M655.7932798919098,170.16879989888795L685.7658804439791,173.55573107026294M612.1198506129984,-14.368819406299616L582.1472500609292,-17.755750577674583M582.1472500609292,-17.755750577674583L571.7690268469553,-7.974198089934116M780.1683567029074,4.620814896207134L780.1683567029074,173.26899573377582M780.1683567029074,173.26899573377582L769.7901334889335,183.0505482215163M685.7658804439791,4.907550232694232L685.7658804439791,173.55573107026294" style="fill:none;stroke:rgb(0,0,0);stroke-width:1;stroke-linecap:round"></path><path d="M666.1715031058837,160.38724741114748L655.7932798919098,170.16879989888795L655.7932798919098,1.5206190613192694zM685.7658804439791,173.55573107026294L696.144103657953,163.77417858252247L696.144103657953,-4.874002255046244z" style="fill:rgb(238,238,238); fill-opacity: 0.4"></path><path d="M638.0376226784995,82.7981341165364L640.2625913862328,85.37112943839921L658.2798089113145,80.64853894142749zM641.6376976177968,71.84874522497941L638.8874851546686,74.44084090512467L658.2798089113145,80.64853894142749z" style="fill:rgb(0,0,0)"></path><path d="M601.7416273990245,-4.587266918559157L601.7416273990245,164.06091391900955L612.1198506129984,-14.368819406299625zM739.8175329368643,179.66361705014134L750.1957561508383,169.88206456240087L780.1683567029074,173.26899573377585z" style="fill:rgb(238,238,238); fill-opacity: 0.4"></path><path d="M612.1198506129984,-14.368819406299616L601.7416273990245,-4.587266918559148" style="fill:none;stroke:rgb(0,0,0);stroke-width:1;stroke-linecap:round"></path><path d="M638.8874851546686,74.44084090512467L638.0376226784995,82.7981341165364L658.2798089113145,80.64853894142749z" style="fill:rgb(0,0,0)"></path><path d="M571.7690268469553,-7.974198089934113L571.7690268469553,160.67398274763457L601.7416273990245,-4.587266918559157zM696.144103657953,-4.874002255046244L696.144103657953,163.77417858252247L666.1715031058837,-8.260933426421198zM601.7416273990245,-4.587266918559157L612.1198506129984,-14.368819406299625L582.1472500609292,-17.75575057767458zM666.1715031058837,-8.260933426421198L666.1715031058837,160.38724741114748L655.7932798919098,1.5206190613192694zM780.1683567029074,173.26899573377585L750.1957561508383,169.88206456240087L750.1957561508383,1.2338837248321832zM571.7690268469553,-7.974198089934113L601.7416273990245,-4.587266918559157L582.1472500609292,-17.75575057767458zM769.7901334889335,183.05054822151632L739.8175329368643,179.66361705014134L780.1683567029074,173.26899573377585z" style="fill:rgb(238,238,238); fill-opacity: 0.4"></path><path d="M693.6575746385482,84.64625870241422L724.2868444311871,88.1073940962858" style="fill:none;stroke:rgb(0,0,0);stroke-width:1;stroke-linecap:round"></path><path d="M655.7932798919098,170.16879989888795L685.7658804439791,173.55573107026294L685.7658804439791,4.9075502326942235z" style="fill:rgb(238,238,238); fill-opacity: 0.4"></path><path d="M739.8175329368643,11.015436212572634L739.8175329368643,179.66361705014134M739.8175329368643,179.66361705014134L769.7901334889335,183.0505482215163M696.144103657953,-4.874002255046235L666.1715031058837,-8.260933426421202M666.1715031058837,-8.260933426421202L655.7932798919098,1.5206190613192654M571.7690268469553,-7.974198089934116L601.7416273990245,-4.587266918559148M769.7901334889335,14.4023673839476L769.7901334889335,183.0505482215163" style="fill:none;stroke:rgb(0,0,0);stroke-width:1;stroke-linecap:round"></path><path d="M750.1957561508383,169.88206456240087L739.8175329368643,179.66361705014134L739.8175329368643,11.01543621257265zM769.7901334889335,183.05054822151632L780.1683567029074,173.26899573377585L780.1683567029074,4.620814896207138z" style="fill:rgb(238,238,238); fill-opacity: 0.4"></path><path d="M722.0618757234539,92.29295126778976L724.2868444311871,94.86594658965255L742.3040619562688,90.14335609268085zM725.6619506627511,81.34356237623277L722.9117381996231,83.93565805637803L742.3040619562688,90.14335609268085z" style="fill:rgb(0,0,0)"></path><path d="M685.7658804439791,4.9075502326942235L685.7658804439791,173.55573107026294L696.144103657953,-4.874002255046244z" style="fill:rgb(238,238,238); fill-opacity: 0.4"></path><path d="M696.144103657953,-4.874002255046235L685.7658804439791,4.907550232694232" style="fill:none;stroke:rgb(0,0,0);stroke-width:1;stroke-linecap:round"></path><path d="M722.9117381996231,83.93565805637803L722.0618757234539,92.29295126778976L742.3040619562688,90.14335609268085z" style="fill:rgb(0,0,0)"></path><path d="M655.7932798919098,1.5206190613192694L655.7932798919098,170.16879989888795L685.7658804439791,4.9075502326942235zM780.1683567029074,4.620814896207138L780.1683567029074,173.26899573377585L750.1957561508383,1.2338837248321832zM685.7658804439791,4.9075502326942235L696.144103657953,-4.874002255046244L666.1715031058837,-8.260933426421198zM750.1957561508383,1.2338837248321832L750.1957561508383,169.88206456240087L739.8175329368643,11.01543621257265zM655.7932798919098,1.5206190613192694L685.7658804439791,4.9075502326942235L666.1715031058837,-8.260933426421198zM739.8175329368643,179.66361705014134L769.7901334889335,183.05054822151632L769.7901334889335,14.402367383947604z" style="fill:rgb(238,238,238); fill-opacity: 0.4"></path><path d="M780.1683567029074,4.620814896207134L750.1957561508383,1.2338837248321668M750.1957561508383,1.2338837248321668L739.8175329368643,11.015436212572634M655.7932798919098,1.5206190613192654L685.7658804439791,4.907550232694232" style="fill:none;stroke:rgb(0,0,0);stroke-width:1;stroke-linecap:round"></path><path d="M769.7901334889335,14.402367383947604L769.7901334889335,183.05054822151632L780.1683567029074,4.620814896207138z" style="fill:rgb(238,238,238); fill-opacity: 0.4"></path><path d="M780.1683567029074,4.620814896207134L769.7901334889335,14.4023673839476" style="fill:none;stroke:rgb(0,0,0);stroke-width:1;stroke-linecap:round"></path><path d="M739.8175329368643,11.01543621257265L739.8175329368643,179.66361705014134L769.7901334889335,14.402367383947604zM769.7901334889335,14.402367383947604L780.1683567029074,4.620814896207138L750.1957561508383,1.2338837248321832zM739.8175329368643,11.01543621257265L769.7901334889335,14.402367383947604L750.1957561508383,1.2338837248321832z" style="fill:rgb(238,238,238); fill-opacity: 0.4"></path><path d="M739.8175329368643,11.015436212572634L769.7901334889335,14.4023673839476" style="fill:none;stroke:rgb(0,0,0);stroke-width:1;stroke-linecap:round"></path></svg>